:SAMPLES-PER-SECOND 30
:FULLY-SPECIFIED
:DEGREES
213
root  6.00706 33.0268 -7.20906 3.95914 -34.3844 1.74335
RightUpLeg  -46.8669 -11.8021 11.2491
RightLeg  69.804 -15.058 -38.6959
RightFoot  -21.1953 0.494024 7.37513
RightToes  5.82063e-011 0 -3.6325e-017
Spine  50.384 -0.266827 9.87767
Spine1  -14.5002 5.41151 -16.1485
HEad  -44.9985 -12.3562 1.80127
LeftShoulder1  -0.182468 -0.622398 14.7205
LeftArm  63.186 -81.3198 -144.821
LeftForeArm  148.678 -75.4713 -139.127
LeftHand  -0.852498 1.95485 28.5029
RightShoulder  0.193933 -4.58018 -28.7282
RightArm  -139.528 66.5362 -80.5958
RightForeArm  -0.020193 -5.76322 -0.155378
RightHand  -0.0573239 -5.09406 -17.7519
LeftUpLeg  -52.4136 -19.9509 6.01173
LeftLeg  62.9552 -7.38211 -14.7559
LeftFoot  -15.8073 -0.0706306 -4.22154
LeftToes  -1.1369e-010 2.7689e-011 -1.90827e-011
214
root  5.68768 31.8234 -6.93953 1.77353 -34.9538 0.542664
RightUpLeg  -46.2185 -13.2021 12.4906
RightLeg  74.6086 -10.914 -39.0621
RightFoot  -24.9515 0.869935 8.70246
RightToes  5.82063e-011 0 -3.6325e-017
Spine  50.2128 0.106356 10.5557
Spine1  -12.0227 6.73764 -17.1604
HEad  -46.0827 -11.6908 2.51021
LeftShoulder1  -0.170861 -0.8202 14.1799
LeftArm  56.2214 -79.4993 -136.743
LeftForeArm  147.564 -75.8982 -137.637
LeftHand  -0.86922 1.81339 27.9319
RightShoulder  -0.20198 -2.00524 -25.8554
RightArm  -151.058 72.9337 -86.896
RightForeArm  6.49394 -6.12923 1.61061
RightHand  -0.0533888 -5.12293 -18.3706
LeftUpLeg  -52.2394 -20.2358 6.29623
LeftLeg  69.9432 -5.38221 -15.2239
LeftFoot  -20.4729 -0.167445 -3.615
LeftToes  -1.1369e-010 2.7689e-011 -1.90827e-011
215
root  5.37763 31.1707 -6.71872 0.389557 -35.1461 0.0886536
RightUpLeg  -45.4157 -14.3733 13.049
RightLeg  77.2096 -8.71483 -39.2171
RightFoot  -27.2983 1.17966 9.73433
RightToes  5.82063e-011 0 -3.6325e-017
Spine  49.3698 0.553384 10.9442
Spine1  -9.71034 7.85848 -18.2884
HEad  -48.315 -12.3411 3.2252
LeftShoulder1  -0.147185 -0.815754 13.559
LeftArm  54.3518 -77.2405 -133.711
LeftForeArm  147.467 -76.0105 -137.266
LeftHand  -0.909575 1.52584 27.0801
RightShoulder  -0.474863 0.808814 -22.4091
RightArm  -164.268 81.5856 -93.8918
RightForeArm  13.0941 -6.44228 3.29564
RightHand  0.0469427 -5.76215 -18.4997
LeftUpLeg  -51.6848 -20.7118 6.34565
LeftLeg  73.6281 -4.33988 -15.4231
LeftFoot  -23.2821 -0.212139 -3.35844
LeftToes  -1.1369e-010 2.7689e-011 -1.90827e-011
216
root  5.10734 31.1788 -6.61224 -0.354614 -34.5162 0.354584
RightUpLeg  -44.3334 -15.156 12.8254
RightLeg  77.3824 -8.59903 -39.3114
RightFoot  -27.831 1.29088 10.1984
RightToes  5.82063e-011 0 -3.6325e-017
Spine  48.5802 1.03574 10.7628
Spine1  -8.10053 8.54113 -18.7995
HEad  -51.0743 -13.623 3.46472
LeftShoulder1  -0.125153 -0.934425 12.8935
LeftArm  54.7693 -75.9345 -132.702
LeftForeArm  148.67 -75.7586 -138.285
LeftHand  -0.943833 1.27527 26.4069
RightShoulder  -0.546738 3.23067 -19.0576
RightArm  68.2339 88.8889 144.335
RightForeArm  19.2057 -6.62883 4.45651
RightHand  0.213185 -6.87604 -17.8506
LeftUpLeg  -50.6718 -21.1612 5.96886
LeftLeg  73.8681 -4.34833 -15.7038
LeftFoot  -23.7808 -0.211329 -3.24633
LeftToes  -1.1369e-010 2.7689e-011 -1.90827e-011
217
root  4.89859 31.7595 -6.62753 -0.392914 -32.9565 0.91684
RightUpLeg  -42.9843 -15.6716 12.2343
RightLeg  75.3174 -10.4793 -39.5138
RightFoot  -26.9189 1.19451 10.0488
RightToes  5.82063e-011 0 -3.6325e-017
Spine  48.0177 1.31842 10.1306
Spine1  -7.18661 8.58902 -18.4753
HEad  -53.3445 -14.6068 3.30025
LeftShoulder1  -0.113152 -1.0201 12.5291
LeftArm  57.256 -75.9787 -133.805
LeftForeArm  149.763 -75.5124 -139.229
LeftHand  -0.934208 1.27592 26.1509
RightShoulder  -0.466496 4.87748 -16.0527
RightArm  15.2192 82.1024 95.2984
RightForeArm  24.2809 -6.71612 5.16168
RightHand  0.349352 -7.93284 -16.7541
LeftUpLeg  -49.2617 -21.6147 5.50019
LeftLeg  71.0268 -5.39237 -16.2179
LeftFoot  -22.485 -0.183519 -3.26426
LeftToes  -1.1369e-010 2.7689e-011 -1.90827e-011
218
root  4.77073 32.7328 -6.71523 0.587952 -30.9856 1.28198
RightUpLeg  -41.6275 -15.9052 11.847
RightLeg  71.452 -14.0007 -39.558
RightFoot  -24.997 0.958967 9.40469
RightToes  5.82063e-011 0 -3.6325e-017
Spine  47.2784 1.23212 9.5762
Spine1  -6.54954 8.10889 -17.7381
HEad  -54.5598 -14.8524 3.14058
LeftShoulder1  -0.105153 -0.323515 12.7999
LeftArm  63.2077 -76.6316 -139.285
LeftForeArm  149.505 -75.591 -138.948
LeftHand  -0.905594 1.39697 26.1172
RightShoulder  -0.336486 5.21937 -14.1355
RightArm  11.4726 78.4203 92.9855
RightForeArm  26.9247 -6.78945 5.75253
RightHand  0.402333 -8.44738 -16.0149
LeftUpLeg  -47.8212 -22.1398 5.49238
LeftLeg  65.8567 -7.2557 -16.5627
LeftFoot  -20.0767 -0.14436 -3.46922
LeftToes  -1.1369e-010 2.7689e-011 -1.90827e-011
219
root  4.7438 33.8744 -6.8111 2.57672 -29.5316 1.32547
RightUpLeg  -40.5495 -15.5895 11.841
RightLeg  66.3838 -18.3247 -38.7352
RightFoot  -22.4261 0.656811 8.3142
RightToes  5.82063e-011 0 -3.6325e-017
Spine  46.5894 1.16203 9.31221
Spine1  -7.70944 7.37515 -16.9827
HEad  -53.4615 -14.5588 2.91235
LeftShoulder1  -0.108932 -0.470369 12.7917
LeftArm  64.2832 -77.3733 -140.243
LeftForeArm  148.386 -75.7964 -138.116
LeftHand  -0.92289 1.33628 26.2134
RightShoulder  -0.336599 5.59169 -13.9282
RightArm  8.7196 77.8556 89.0323
RightForeArm  26.8846 -6.87645 6.2791
RightHand  0.388812 -8.35882 -15.9796
LeftUpLeg  -46.7367 -22.5969 6.11013
LeftLeg  59.3843 -9.29709 -15.9804
LeftFoot  -16.99 -0.0878666 -3.84822
LeftToes  -1.1369e-010 2.7689e-011 -1.90827e-011
220
root  4.82309 34.9412 -6.88063 5.11542 -29.2348 1.25858
RightUpLeg  -40.0002 -14.6238 11.9841
RightLeg  60.8983 -22.276 -36.7669
RightFoot  -19.6759 0.370608 6.90541
RightToes  5.82063e-011 0 -3.6325e-017
Spine  45.7653 1.1597 9.35296
Spine1  -9.40217 6.77384 -16.9381
HEad  -51.5901 -13.7581 2.99813
LeftShoulder1  -0.106901 -0.265914 12.917
LeftArm  64.8895 -78.1839 -141.513
LeftForeArm  148.101 -75.7333 -138.245
LeftHand  -0.962867 1.23158 26.6527
RightShoulder  -0.457425 4.8804 -16.0458
RightArm  6.65205 81.2543 84.3813
RightForeArm  24.3963 -6.87283 6.11874
RightHand  0.335087 -7.97259 -15.9248
LeftUpLeg  -46.2671 -22.7708 7.08753
LeftLeg  52.8216 -10.7312 -14.361
LeftFoot  -13.575 -0.00381613 -4.38899
LeftToes  -1.1369e-010 2.7689e-011 -1.90827e-011
221
root  4.97907 35.7584 -6.92992 7.71616 -29.9685 1.38141
RightUpLeg  -40.2586 -13.2052 11.9589
RightLeg  55.9848 -25.1088 -34.359
RightFoot  -17.2654 0.172378 5.60411
RightToes  5.82063e-011 0 -3.6325e-017
Spine  44.9874 1.17361 9.35957
Spine1  -10.3751 6.40988 -17.678
HEad  -50.6308 -12.6726 3.34075
LeftShoulder1  -0.0670415 1.52538 13.5842
LeftArm  73.1251 -78.9622 -151.432
LeftForeArm  149.07 -75.2544 -139.815
LeftHand  -0.919649 1.51232 27.2846
RightShoulder  -0.484462 2.02491 -19.9265
RightArm  -5.81257 88.5578 68.513
RightForeArm  19.9948 -6.73172 5.09542
RightHand  0.280073 -7.63899 -15.4637
LeftUpLeg  -46.6073 -22.5747 8.0564
LeftLeg  47.2422 -11.3891 -12.4991
LeftFoot  -10.2416 0.11195 -5.17742
LeftToes  -1.1369e-010 2.7689e-011 -1.90827e-011
222
root  5.16771 36.2709 -6.97854 10.1212 -31.1039 1.84851
RightUpLeg  -41.4475 -11.5493 11.5882
RightLeg  52.5144 -26.8921 -32.567
RightFoot  -15.6043 0.0756436 4.90237
RightToes  5.82063e-011 0 -3.6325e-017
Spine  44.8069 1.16659 9.07005
Spine1  -11.7672 6.00691 -18.932
HEad  -50.4305 -11.994 3.54402
LeftShoulder1  0.00880847 3.7024 14.5496
LeftArm  86.1241 -79.2331 -166.404
LeftForeArm  150.281 -74.6163 -141.74
LeftHand  -0.783285 2.13043 27.616
RightShoulder  -0.206974 -1.77479 -23.7226
RightArm  -154.627 82.3273 -85.2228
RightForeArm  14.354 -6.50779 3.68151
RightHand  0.2363 -7.32936 -15.3035
LeftUpLeg  -47.7727 -22.0415 8.74166
LeftLeg  43.1715 -11.6862 -11.1321
LeftFoot  -7.48828 0.250422 -6.1215
LeftToes  -1.1369e-010 2.7689e-011 -1.90827e-011
223
root  5.35459 36.4421 -7.01755 12.1307 -32.0838 2.54593
RightUpLeg  -43.5005 -9.9642 10.9475
RightLeg  51.2723 -27.6691 -32.0676
RightFoot  -15.0407 0.059666 5.00707
RightToes  5.82063e-011 0 -3.6325e-017
Spine  45.3124 0.901107 8.72073
Spine1  -14.0501 5.26258 -20.5744
HEad  -50.8188 -12.1001 3.72851
LeftShoulder1  0.0904922 5.20543 15.7479
LeftArm  97.6244 -78.9632 -179.623
LeftForeArm  151.262 -74.2479 -142.827
LeftHand  -0.679908 2.5584 27.5955
RightShoulder  0.254304 -5.14721 -26.735
RightArm  -147.382 73.8352 -83.6796
RightForeArm  7.86942 -6.21616 2.07069
RightHand  0.18587 -6.89745 -15.6825
LeftUpLeg  -49.642 -21.3083 8.97369
LeftLeg  41.1618 -11.7962 -10.4791
LeftFoot  -5.99223 0.347332 -6.687
LeftToes  -1.1369e-010 2.7689e-011 -1.90827e-011
224
root  5.54607 36.226 -7.02884 13.1311 -32.7355 3.2435
RightUpLeg  -45.981 -9.00894 10.2464
RightLeg  52.8319 -26.9463 -32.9271
RightFoot  -15.5967 0.106249 5.69108
RightToes  5.82063e-011 0 -3.6325e-017
Spine  46.3759 0.357306 8.50546
Spine1  -16.1799 4.37438 -21.9252
HEad  -51.6964 -12.6961 3.93734
LeftShoulder1  0.134515 5.65904 16.8427
LeftArm  104.707 -78.7937 172.032
LeftForeArm  151.898 -74.3404 -142.716
LeftHand  -0.672379 2.59958 27.6898
RightShoulder  0.732205 -7.66016 -29.3154
RightArm  -140.737 67.0236 -81.8449
RightForeArm  1.18888 -5.86361 0.338048
RightHand  0.135165 -6.49888 -15.8827
LeftUpLeg  -51.7649 -20.6457 8.57841
LeftLeg  41.9962 -11.5222 -10.5397
LeftFoot  -6.18564 0.328639 -6.46182
LeftToes  -1.1369e-010 2.7689e-011 -1.90827e-011
225
root  5.78247 35.5682 -7.00231 12.2283 -33.3825 3.72467
RightUpLeg  -48.0873 -8.9156 9.60532
RightLeg  57.1929 -24.1141 -34.6187
RightFoot  -16.9669 0.209262 6.5901
RightToes  5.82063e-011 0 -3.6325e-017
Spine  48.0262 0.0295313 8.18269
Spine1  -17.2814 3.9616 -21.7816
HEad  -52.1039 -13.1801 3.67081
LeftShoulder1  0.0795411 4.72472 17.0296
LeftArm  106.225 -79.6408 169.886
LeftForeArm  151.413 -74.7719 -141.552
LeftHand  -0.687591 2.57482 28.0638
RightShoulder  1.06025 -8.89892 -31.6346
RightArm  -137.872 62.8144 -81.4764
RightForeArm  -3.65065 -5.5503 -1.11032
RightHand  0.105172 -6.27927 -15.8466
LeftUpLeg  -53.4156 -20.1788 7.44206
LeftLeg  46.2823 -10.5933 -11.2482
LeftFoot  -8.07709 0.211959 -5.70674
LeftToes  -1.1369e-010 2.7689e-011 -1.90827e-011
226
root  6.06624 34.4604 -6.90987 9.21561 -34.5394 4.06943
RightUpLeg  -49.2986 -9.17066 8.79864
RightLeg  63.4904 -19.331 -36.2395
RightFoot  -18.9452 0.370841 7.50119
RightToes  5.82063e-011 0 -3.6325e-017
Spine  50.0722 0.220221 7.48667
Spine1  -17.4065 4.25664 -20.3141
HEad  -50.9594 -13.328 2.94984
LeftShoulder1  -0.0621963 2.36714 16.1501
LeftArm  98.504 -81.7478 177.818
LeftForeArm  149.527 -75.3393 -139.67
LeftHand  -0.687477 2.5941 28.2468
RightShoulder  0.94949 -8.05872 -32.8631
RightArm  -140.074 62.1816 -82.8953
RightForeArm  -3.80324 -5.44968 -1.66506
RightHand  0.077262 -6.05467 -16.2215
LeftUpLeg  -54.1565 -19.6195 5.52666
LeftLeg  53.4806 -8.93275 -12.2509
LeftFoot  -11.313 0.0691407 -4.93779
LeftToes  -1.1369e-010 2.7689e-011 -1.90827e-011
227
root  6.33701 33.0684 -6.70747 5.18814 -36.3863 4.51047
RightUpLeg  -49.8125 -9.09165 7.72253
RightLeg  70.2079 -13.8528 -37.131
RightFoot  -21.4755 0.598784 8.37918
RightToes  5.82063e-011 0 -3.6325e-017
Spine  51.762 0.51181 6.804
Spine1  -16.8907 4.80081 -19.4189
HEad  -48.7046 -13.7072 2.82455
LeftShoulder1  -0.187333 -0.550694 14.9368
LeftArm  73.3807 -83.2677 -155.866
LeftForeArm  147.67 -75.8476 -137.814
LeftHand  -0.740263 2.34517 27.9454
RightShoulder  0.32883 -5.0821 -31.9998
RightArm  -146.782 65.7162 -85.7403
RightForeArm  1.08443 -5.64365 -0.914185
RightHand  0.028144 -5.67573 -17.0265
LeftUpLeg  -54.2578 -18.5387 3.13597
LeftLeg  61.7057 -6.84526 -12.9578
LeftFoot  -15.1862 -0.050384 -4.23006
LeftToes  -1.1369e-010 2.7689e-011 -1.90827e-011
